HIERARCHY
ROOT Hips
{
     OFFSET 2.00946 97.91640 -87.45170
     CHANNELS 6 Xposition Yposition Zposition Zrotation Xrotation Yrotation
     JOINT Spine
     {
          OFFSET -0.00000 11.89050 -0.00000
          CHANNELS 3 Zrotation Xrotation Yrotation
          JOINT Spine1
          {
               OFFSET 0.00000 25.65740 0.12766
               CHANNELS 3 Zrotation Xrotation Yrotation
               JOINT HEad
               {
                    OFFSET 0.00000 8.73416 0.01134
                    CHANNELS 3 Zrotation Xrotation Yrotation
                    End Site
                    {
                         OFFSET -0.29000 12.77420 2.51395
                    }
               }
               JOINT LeftShoulder1
               {
                    OFFSET 8.99000 -0.36225 -0.22000
                    CHANNELS 3 Zrotation Xrotation Yrotation
                    JOINT LeftArm
                    {
                         OFFSET 10.28270 -0.00338 0.32212
                         CHANNELS 3 Zrotation Xrotation Yrotation
                         JOINT LeftForeArm
                         {
                              OFFSET 32.76690 0.09914 -1.42434
                              CHANNELS 3 Zrotation Xrotation Yrotation
                              JOINT LeftHand
                              {
                                   OFFSET 27.56430 0.08536 1.02216
                                   CHANNELS 3 Zrotation Xrotation Yrotation
                                   End Site
                                   {
                                        OFFSET 16.74430 -0.60000 1.50291
                                   }
                              }
                         }
                    }
               }
               JOINT RightShoulder
               {
                    OFFSET -8.99000 -0.36225 -0.22000
                    CHANNELS 3 Zrotation Xrotation Yrotation
                    JOINT RightArm
                    {
                         OFFSET -10.28270 -0.00338 0.32212
                         CHANNELS 3 Zrotation Xrotation Yrotation
                         JOINT RightForeArm
                         {
                              OFFSET -32.89710 0.09914 -1.42434
                              CHANNELS 3 Zrotation Xrotation Yrotation
                              JOINT RightHand
                              {
                                   OFFSET -27.49210 0.08536 1.02216
                                   CHANNELS 3 Zrotation Xrotation Yrotation
                                   End Site
                                   {
                                        OFFSET -16.63120 -0.60000 1.50291
                                   }
                              }
                         }
                    }
               }
          }
     }
     JOINT LeftUpLeg
     {
          OFFSET 8.94580 -8.66707 0.10165
          CHANNELS 3 Zrotation Xrotation Yrotation
          JOINT LeftLeg
          {
               OFFSET -0.00000 -44.42270 1.37270
               CHANNELS 3 Zrotation Xrotation Yrotation
               JOINT LeftFoot
               {
                    OFFSET -0.25355 -42.09240 -1.46059
                    CHANNELS 3 Zrotation Xrotation Yrotation
                    JOINT LeftToes
                    {
                         OFFSET -0.04000 -4.41509 8.49910
                         CHANNELS 3 Zrotation Xrotation Yrotation
                         End Site
                         {
                              OFFSET 0.08000 -0.04745 9.77979
                         }
                    }
               }
          }
     }
     JOINT RightUpLeg
     {
          OFFSET -8.94580 -8.66707 0.10165
          CHANNELS 3 Zrotation Xrotation Yrotation
          JOINT RightLeg
          {
               OFFSET 0.00000 -44.42270 1.37270
               CHANNELS 3 Zrotation Xrotation Yrotation
               JOINT RightFoot
               {
                    OFFSET 0.25355 -42.09240 -1.46059
                    CHANNELS 3 Zrotation Xrotation Yrotation
                    JOINT RightToes
                    {
                         OFFSET 0.04000 -4.41509 8.49910
                         CHANNELS 3 Zrotation Xrotation Yrotation
                         End Site
                         {
                              OFFSET -0.08000 -0.13745 9.77979
                         }
                    }
               }
          }
     }
}
MOTION
Frames: 15
Frame Time: 0.01667
2.00946 97.91640 -87.45170 1.15883 -4.55552 -47.42580 1.98615 5.58399 2.67123 2.02115 11.31540 5.38567 -12.01440 -0.73096 42.71200 -0.00000 -0.00000 0.00000 -116.75100 -53.97710 -106.44300 -26.04690 37.42730 -84.73150 5.55594 9.67997 -0.87718 10.26500 0.88700 3.78844 59.07180 -11.46730 87.22140 11.93640 25.04390 88.77720 -5.55712 9.68432 0.87760 8.33415 -14.00960 4.54055 2.10557 18.11880 -2.85511 -4.38498 3.95120 0.40443 0.68731 -19.61150 -2.45618 -9.30688 -8.71639 -8.16842 -2.24272 37.31400 14.54730 7.24559 -38.97370 1.73876 19.14160 18.01460 -9.57690 
1.95815 97.78810 -87.35120 1.23050 -4.55174 -47.80440 2.07928 5.64951 2.68512 2.00400 11.45420 5.43640 -12.33790 -0.98727 43.06110 -0.00000 -0.00000 0.00000 -117.36100 -54.41310 -106.33900 -26.18950 37.56950 -84.89380 5.55594 9.67997 -0.87718 10.22820 0.88039 3.75273 58.57650 -11.61080 86.97340 11.97520 25.09370 88.73900 -5.55712 9.68432 0.87760 8.51960 -14.46600 4.79058 1.89587 19.26700 -2.68065 -4.62843 3.23405 0.40464 0.69614 -19.56430 -2.62133 -9.53262 -8.96008 -8.09597 -2.25887 37.70560 14.87690 6.44637 -38.41520 1.47071 18.31470 17.56840 -8.85691 
1.89006 97.62100 -87.26060 1.28992 -4.52748 -48.10480 2.16660 5.72190 2.67588 2.00107 11.60630 5.43554 -12.54310 -1.24287 43.39050 -0.00000 -0.00000 0.00000 -117.95000 -54.89170 -106.26300 -26.34880 37.71870 -85.00230 5.55594 9.67997 -0.87718 10.23010 0.87658 3.72352 57.99710 -11.82950 86.66450 12.03820 25.20240 88.72430 -5.55712 9.68432 0.87760 8.76482 -15.03560 5.05040 1.65998 20.62370 -2.61846 -4.84936 2.28298 0.39138 0.69854 -19.29630 -2.68894 -9.75822 -9.26379 -8.11557 -2.20528 38.24750 15.16040 5.73243 -37.85260 1.23599 17.22530 16.89410 -7.98228 
1.80619 97.41300 -87.17240 1.34149 -4.49521 -48.33670 2.24476 5.80111 2.64568 1.99766 11.77150 5.38937 -12.61500 -1.48788 43.70200 -0.00000 -0.00000 0.00000 -118.50500 -55.39860 -106.22600 -26.51070 37.86240 -85.06250 5.55594 9.67997 -0.87718 10.26010 0.87450 3.69703 57.37370 -12.11940 86.30180 12.12700 25.37150 88.72980 -5.55712 9.68432 0.87760 9.04282 -15.69330 5.26903 1.39822 22.15580 -2.59217 -5.01551 1.14694 0.36320 0.69513 -18.87670 -2.66785 -9.94064 -9.62161 -8.20143 -2.17770 38.92420 15.37420 5.08453 -37.38250 1.03203 16.04330 16.07480 -7.10531 
1.70972 97.16330 -87.07700 1.38492 -4.47053 -48.51450 2.31177 5.88939 2.59869 1.98243 11.95460 5.30849 -12.55560 -1.72086 44.00360 -0.00000 -0.00000 0.00000 -119.01200 -55.91570 -106.22600 -26.65350 37.98300 -85.08870 5.55594 9.67997 -0.87718 10.31050 0.87344 3.67086 56.74860 -12.47880 85.89470 12.24370 25.60520 88.75380 -5.55712 9.68432 0.87760 9.32327 -16.40720 5.39152 1.10954 23.82540 -2.51275 -5.11701 -0.10644 0.32285 0.68775 -18.40680 -2.59313 -10.05330 -10.01870 -8.30194 -2.25221 39.72050 15.50200 4.47394 -37.04680 0.84964 14.86350 15.15930 -6.31553 
1.60521 96.87280 -86.96360 1.41732 -4.46731 -48.65200 2.36691 5.98963 2.53980 1.94965 12.16120 5.20468 -12.38020 -1.94905 44.30420 -0.00000 -0.00000 0.00000 -119.46200 -56.42280 -106.25000 -26.75530 38.06470 -85.09950 5.55594 9.67997 -0.87718 10.37710 0.87315 3.64476 56.15950 -12.91180 85.45070 12.39230 25.91080 88.79700 -5.55712 9.68432 0.87760 9.57657 -17.14750 5.37201 0.79306 25.59670 -2.30282 -5.16775 -1.40713 0.27556 0.67990 -17.99300 -2.51550 -10.09060 -10.43560 -8.36145 -2.46475 40.61950 15.53200 3.86576 -36.83610 0.67608 13.70970 14.15870 -5.64320 
1.49761 96.54340 -86.82170 1.43585 -4.49373 -48.75950 2.41037 6.10362 2.47393 1.89949 12.39490 5.08905 -12.11370 -2.18672 44.60910 -0.00000 -0.00000 0.00000 -119.84900 -56.90150 -106.27700 -26.80360 38.09940 -85.11290 5.55594 9.67997 -0.87718 10.46030 0.87387 3.62049 55.63640 -13.42960 84.97220 12.57900 26.30010 88.86250 -5.55712 9.68432 0.87760 9.77735 -17.89430 5.18669 0.45189 27.44340 -1.91841 -5.19942 -2.69911 0.22655 0.67591 -17.71690 -2.48534 -10.06540 -10.85340 -8.34166 -2.81160 41.60370 15.45980 3.22727 -36.70660 0.49899 12.55940 13.05760 -5.07719 
1.39122 96.17720 -86.64170 1.44024 -4.55009 -48.84350 2.44300 6.23083 2.40579 1.83693 12.65440 4.97122 -11.78610 -2.45150 44.91670 -0.00000 -0.00000 0.00000 -120.17600 -57.33950 -106.28100 -26.80080 38.09090 -85.14240 5.55594 9.67997 -0.87718 10.56120 0.87600 3.60049 55.20200 -14.04820 84.45470 12.81160 26.78830 88.95540 -5.55712 9.68432 0.87760 9.90710 -18.64100 4.84260 0.09714 29.35180 -1.36106 -5.25101 -3.95023 0.17899 0.67907 -17.61380 -2.53801 -10.00290 -11.25900 -8.23284 -3.26332 42.65660 15.29260 2.54024 -36.60240 0.31099 11.36990 11.83250 -4.58276 
1.28893 95.77660 -86.41540 1.43367 -4.62877 -48.90830 2.46599 6.36815 2.33969 1.76984 12.93350 4.85906 -11.42860 -2.76089 45.21920 -0.00000 -0.00000 0.00000 -120.45200 -57.73400 -106.24300 -26.76480 38.05450 -85.19540 5.55594 9.67997 -0.87718 10.68000 0.87978 3.58656 54.87120 -14.78320 83.88800 13.09830 27.39010 89.08070 -5.55712 9.68432 0.87760 9.95604 -19.39370 4.37907 -0.25053 31.32180 -0.67709 -5.35652 -5.15342 0.13331 0.69004 -17.66580 -2.68397 -9.93121 -11.64800 -8.05204 -3.78392 43.76380 15.05140 1.81105 -36.47460 0.11288 10.09830 10.46460 -4.11506 
1.19189 95.34350 -86.13660 1.42220 -4.71647 -48.95780 2.48023 6.51074 2.27926 1.70657 13.22240 4.75832 -11.07040 -3.12944 45.50600 -0.00000 -0.00000 0.00000 -120.69000 -58.09420 -106.14500 -26.72330 38.01330 -85.27530 5.55594 9.67997 -0.87718 10.81510 0.88521 3.57907 54.65010 -15.64390 83.25940 13.44470 28.11460 89.24180 -5.55712 9.68432 0.87760 9.92373 -20.16750 3.86008 -0.56304 33.36370 0.05636 -5.53421 -6.31849 0.08774 0.70674 -17.81550 -2.90697 -9.87365 -12.02360 -7.83061 -4.34577 44.91240 14.76710 1.07578 -36.29530 -0.08512 8.71482 8.94991 -3.63005 
1.09937 94.87960 -85.80110 1.41345 -4.79837 -48.99640 2.48422 6.65357 2.22670 1.65383 13.51030 4.67193 -10.73490 -3.56542 45.76840 -0.00000 -0.00000 0.00000 -120.90200 -58.44020 -105.97600 -26.70640 37.99200 -85.38280 5.55594 9.67997 -0.87718 10.96420 0.89206 3.57712 54.53240 -16.62840 82.55760 13.85120 28.95860 89.43810 -5.55712 9.68432 0.87760 9.81726 -20.98130 3.35966 -0.80976 35.49630 0.75278 -5.78053 -7.46190 0.03947 0.72557 -17.98780 -3.16890 -9.84425 -12.39430 -7.59753 -4.93551 46.09300 14.47160 0.39434 -36.06010 -0.26601 7.20752 7.29825 -3.09146 
1.00920 94.38590 -85.40680 1.41416 -4.86209 -49.02760 2.47369 6.79276 2.18226 1.61561 13.78860 4.59886 -10.43740 -4.06955 46.00400 -0.00000 -0.00000 0.00000 -121.09400 -58.79890 -105.72900 -26.73850 38.01140 -85.51700 5.55594 9.67997 -0.87718 11.12720 0.90024 3.57979 54.49380 -17.72120 81.77480 14.31020 29.90210 89.66440 -5.55712 9.68432 0.87760 9.64878 -21.85310 2.94409 -0.96283 37.74080 1.33889 -6.06962 -8.59572 -0.01380 0.74290 -18.11500 -3.41977 -9.84627 -12.76800 -7.36713 -5.55292 47.29850 14.19030 -0.16159 -35.78680 -0.41045 5.58803 5.53549 -2.47964 
0.91843 93.86360 -84.95350 1.42806 -4.90089 -49.05380 2.44235 6.92643 2.14417 1.59291 14.05270 4.53360 -10.18270 -4.63401 46.21760 -0.00000 -0.00000 0.00000 -121.26500 -59.19770 -105.39600 -26.83310 38.08360 -85.67510 5.55594 9.67997 -0.87718 11.30980 0.91010 3.58753 54.48930 -18.89240 80.90880 14.80450 30.90670 89.91180 -5.55712 9.68432 0.87760 9.43225 -22.79570 2.65725 -1.00027 40.11620 1.76988 -6.35942 -9.72171 -0.07264 0.75586 -18.15240 -3.61017 -9.87395 -13.14760 -7.13435 -6.20534 48.52480 13.94030 -0.52378 -35.51060 -0.50168 3.89690 3.70656 -1.80015 
0.82414 93.31230 -84.44220 1.45541 -4.91575 -49.07400 2.38064 7.05558 2.10846 1.58435 14.30340 4.46657 -9.96581 -5.24410 46.41990 -0.00000 -0.00000 0.00000 -121.40100 -59.65730 -104.96800 -26.98870 38.20950 -85.85220 5.55594 9.67997 -0.87718 11.52350 0.92262 3.60314 54.45620 -20.10040 79.96230 15.30780 31.91810 90.16960 -5.55712 9.68432 0.87760 9.17901 -23.81790 2.51284 -0.90546 42.64040 2.03173 -6.60027 -10.83290 -0.13527 0.76245 -18.08410 -3.70213 -9.91798 -13.52960 -6.87940 -6.90457 49.77500 13.73640 -0.63922 -35.28050 -0.52836 2.20241 1.87743 -1.08454 
0.72442 92.73030 -83.87410 1.49231 -4.91464 -49.08390 2.27882 7.18370 2.07002 1.58743 14.54670 4.38583 -9.77400 -5.88075 46.62250 -0.00000 -0.00000 0.00000 -121.48200 -60.18450 -104.43100 -27.18980 38.37840 -86.04160 5.55594 9.67997 -0.87718 11.78310 0.93933 3.63174 54.32270 -21.29550 78.94440 15.78720 32.87260 90.42740 -5.55712 9.68432 0.87760 8.89680 -24.92370 2.49561 -0.66357 45.32620 2.13193 -6.74553 -11.91650 -0.19774 0.76130 -17.91920 -3.67591 -9.97039 -13.90450 -6.57690 -7.66221 51.05930 13.60050 -0.47675 -35.15330 -0.48512 0.59474 0.13464 -0.38562 
